# xmcd
#
# Track frame offsets:
#	150
#	12056
#	31461
#	49019
#	60780
#	75196
#	88903
#	105155
#	119999
#	134849
#	151889
#	170105
#	179497
#
# Disc length: 2638 seconds
# Revision: 0
# Processed by: cddbd v1.5.2PL0 Copyright (c) Steve Scherf et al.
# Submitted via: dBpowerAMP V12.0
#
DISCID=a30a4c0d
DTITLE=Dickie Lee Erwin - Poppin' Johnny
DYEAR=2006
DGENRE=Country
TTITLE0=Stop Me From Lovin You
TTITLE1=Elmo and Red
TTITLE2=Jonna Rose
TTITLE3=Farmboy
TTITLE4=Billy and Jenny
TTITLE5=Never Been to California
TTITLE6=Great Assembly
TTITLE7=43rd and Coffee
TTITLE8=Measure of a Man
TTITLE9=Just One Night
TTITLE10=Sheriff, Sheriff
TTITLE11=Big Screen Color TV
TTITLE12=The Diary
EXTD=
EXTT0=
EXTT1=
EXTT2=
EXTT3=
EXTT4=
EXTT5=
EXTT6=
EXTT7=
EXTT8=
EXTT9=
EXTT10=
EXTT11=
EXTT12=
PLAYORDER=
